<svg width="56" height="52" viewBox="0 0 56 52" fill="none" xmlns="http://www.w3.org/2000/svg">
    <path
        d="M29.87 10.5001H26.13L14.25 36.3334H19.75L21.7575 31.1667H34.2425L36.25 36.3334H41.75L29.87 10.5001ZM23.325 27.2917L28 15.6667L32.675 27.2917H23.325ZM42.85 47.7001L47.25 51.8334H33.5V38.9168L39 44.0834C45.5725 40.4926 50 33.6209 50 26.0001C50 14.6076 40.1275 5.33342 28 5.33342C15.8725 5.33342 6 14.6076 6 26.0001C6 33.6209 10.4275 40.2859 17 43.8768V49.6634C7.2925 45.6593 0.5 36.5918 0.5 26.0001C0.5 11.7917 12.875 0.166748 28 0.166748C43.125 0.166748 55.5 11.7917 55.5 26.0001C55.5 35.1193 50.4675 43.1017 42.85 47.7001Z"
        fill="#9747FF" />
</svg>