<svg width="30" height="30" viewBox="0 0 30 30" fill="none" xmlns="http://www.w3.org/2000/svg">
<path d="M7.5 22.4998H22.5C23.1875 22.4998 23.75 23.0623 23.75 23.7498C23.75 24.4373 23.1875 24.9998 22.5 24.9998H7.5C6.8125 24.9998 6.25 24.4373 6.25 23.7498C6.25 23.0623 6.8125 22.4998 7.5 22.4998ZM13.7625 17.3748C13.2924 17.8388 12.6579 18.0979 11.9974 18.0955C11.337 18.0932 10.7043 17.8296 10.2375 17.3623L7.5 14.6248C6.8125 13.9373 6.825 12.8248 7.5375 12.1623C8.2125 11.5123 9.2875 11.5373 9.9375 12.1873L12 14.2498L20.0375 6.2123C20.7125 5.5373 21.8 5.5373 22.475 6.2123L22.525 6.26231C23.2 6.93731 23.2 8.0373 22.5125 8.7123L13.7625 17.3748Z" fill="#80FF00"/>
</svg>
