<svg width="14" height="24" viewBox="0 0 14 24" fill="none" xmlns="http://www.w3.org/2000/svg">
<path d="M9.80625 10.9406L4.74375 9.45938C4.15781 9.29063 3.75 8.74219 3.75 8.13281C3.75 7.36875 4.36875 6.75 5.13281 6.75H8.24063C8.8125 6.75 9.375 6.92344 9.84375 7.24219C10.1297 7.43437 10.5141 7.3875 10.7578 7.14844L12.3891 5.55469C12.7219 5.23125 12.675 4.69219 12.3047 4.40625C11.1563 3.50625 9.72188 3.00469 8.25 3V0.75C8.25 0.3375 7.9125 0 7.5 0H6C5.5875 0 5.25 0.3375 5.25 0.75V3H5.13281C2.14688 3 -0.253124 5.56406 0.0234388 8.60625C0.220314 10.7672 1.87031 12.525 3.95156 13.1344L8.75625 14.5406C9.34219 14.7141 9.75 15.2578 9.75 15.8672C9.75 16.6313 9.13125 17.25 8.36719 17.25H5.25938C4.6875 17.25 4.125 17.0766 3.65625 16.7578C3.37031 16.5656 2.98594 16.6125 2.74219 16.8516L1.11094 18.4453C0.778126 18.7687 0.825001 19.3078 1.19531 19.5938C2.34375 20.4937 3.77813 20.9953 5.25 21V23.25C5.25 23.6625 5.5875 24 6 24H7.5C7.9125 24 8.25 23.6625 8.25 23.25V20.9906C10.4344 20.9484 12.4828 19.65 13.2047 17.5828C14.2125 14.6953 12.5203 11.7328 9.80625 10.9406Z" fill="#625BF7"/>
</svg>
