<svg width="52" height="61" viewBox="0 0 52 61" fill="none" xmlns="http://www.w3.org/2000/svg">
    <path
        d="M12.8125 33.4583V17.1875C12.8125 16.0106 13.2932 14.8819 14.1488 14.0497C15.0045 13.2175 16.1649 12.75 17.375 12.75C18.5851 12.75 19.7455 13.2175 20.6012 14.0497C21.4568 14.8819 21.9375 16.0106 21.9375 17.1875V33.4583"
        stroke="#9747FF" stroke-width="4" stroke-linecap="round" stroke-linejoin="round" />
    <path
        d="M49.3125 31.979V41.5936C49.3125 50.9878 41.4817 58.604 31.8229 58.604H30.3021C20.6433 58.604 12.8125 50.9878 12.8125 41.5936V31.979"
        stroke="#9747FF" stroke-width="4" stroke-linecap="round" stroke-linejoin="round" />
    <path
        d="M21.9375 37.8958V30.5C21.9375 29.3231 22.4182 28.1944 23.2738 27.3622C24.1295 26.53 25.2899 26.0625 26.5 26.0625C27.7101 26.0625 28.8705 26.53 29.7262 27.3622C30.5818 28.1944 31.0625 29.3231 31.0625 30.5M31.0625 30.5V37.8958M31.0625 30.5C31.0625 29.3231 31.5432 28.1944 32.3988 27.3622C33.2545 26.53 34.415 26.0625 35.625 26.0625C36.8351 26.0625 37.9955 26.53 38.8512 27.3622C39.7068 28.1944 40.1875 29.3231 40.1875 30.5M40.1875 30.5V37.8958M40.1875 30.5C40.1875 29.3231 40.6682 28.1944 41.5238 27.3622C42.3795 26.53 43.54 26.0625 44.75 26.0625C45.9601 26.0625 47.1205 26.53 47.9762 27.3622C48.8318 28.1944 49.3125 29.3231 49.3125 30.5V37.8958"
        stroke="#9747FF" stroke-width="4" stroke-linecap="round" stroke-linejoin="round" />
    <path
        d="M32.5833 17.1874C32.5869 14.0211 31.5423 10.9378 29.604 8.39378C28.1911 6.53231 26.3483 5.01971 24.2242 3.97788C22.1 2.93604 19.7539 2.39411 17.375 2.39576C14.9958 2.39388 12.6494 2.9357 10.525 3.97754C8.40058 5.01939 6.55754 6.53211 5.14446 8.39378C3.20685 10.938 2.16276 14.0213 2.16667 17.1874"
        stroke="#9747FF" stroke-width="4" stroke-linecap="round" />
</svg>