<svg width="43" height="37" viewBox="0 0 43 37" fill="none" xmlns="http://www.w3.org/2000/svg">
<path d="M32.25 15.4165H25.0833V9.24984C25.0833 8.43209 24.7058 7.64783 24.0338 7.06959C23.3618 6.49135 22.4504 6.1665 21.5 6.1665C20.5496 6.1665 19.6382 6.49135 18.9662 7.06959C18.2942 7.64783 17.9167 8.43209 17.9167 9.24984L18.0439 15.4165H10.75C9.79965 15.4165 8.88821 15.7414 8.21621 16.3196C7.5442 16.8978 7.16667 17.6821 7.16667 18.4998C7.16667 19.3176 7.5442 20.1018 8.21621 20.6801C8.88821 21.2583 9.79965 21.5832 10.75 21.5832L18.0439 21.4737L17.9167 27.7498C17.9167 28.5676 18.2942 29.3518 18.9662 29.9301C19.6382 30.5083 20.5496 30.8332 21.5 30.8332C22.4504 30.8332 23.3618 30.5083 24.0338 29.9301C24.7058 29.3518 25.0833 28.5676 25.0833 27.7498V21.4737L32.25 21.5832C33.2004 21.5832 34.1118 21.2583 34.7838 20.6801C35.4558 20.1018 35.8333 19.3176 35.8333 18.4998C35.8333 17.6821 35.4558 16.8978 34.7838 16.3196C34.1118 15.7414 33.2004 15.4165 32.25 15.4165Z" fill="#000F7D"/>
</svg>
