<svg width="37" height="41" viewBox="0 0 37 41" fill="none" xmlns="http://www.w3.org/2000/svg">
    <path
        d="M30.1875 0.3125C29.2116 0.312118 28.2486 0.535805 27.3727 0.966326C26.4969 1.39685 25.7316 2.0227 25.1358 2.79567C24.54 3.56864 24.1297 4.46807 23.9363 5.42466C23.743 6.38125 23.7719 7.36946 24.0207 8.31313C23.8669 8.34566 23.7186 8.4008 23.5809 8.47675L17.7222 11.6706L10.272 15.9313C10.1974 15.9737 10.1264 16.022 10.0595 16.0758C9.02302 15.4628 7.83414 15.1559 6.63048 15.1907C5.42683 15.2254 4.25762 15.6004 3.25823 16.2721C2.25884 16.9438 1.47013 17.8848 0.983404 18.9862C0.496682 20.0876 0.331855 21.3044 0.508005 22.4956C0.684154 23.6868 1.19408 24.8037 1.97874 25.7171C2.7634 26.6305 3.79071 27.303 4.94174 27.6568C6.09277 28.0105 7.32045 28.031 8.48265 27.7159C9.64485 27.4008 10.694 26.763 11.5087 25.8763L17.7265 29.3336L24.0037 32.757C23.6237 34.2614 23.8054 35.8528 24.5148 37.2328C25.2242 38.6128 26.4126 39.6867 27.8571 40.2532C29.3017 40.8197 30.9033 40.8399 32.3617 40.31C33.8201 39.7802 35.0351 38.7365 35.7791 37.3749C36.523 36.0132 36.7448 34.4269 36.4029 32.9134C36.0609 31.3998 35.1787 30.063 33.9216 29.1534C32.6644 28.2439 31.1187 27.824 29.5742 27.9726C28.0296 28.1212 26.5923 28.828 25.5316 29.9605L19.2693 26.5435L13.009 23.067C13.3899 21.4889 13.1559 19.825 12.3545 18.4133L19.2778 14.4565L25.1066 11.2754C25.2453 11.2003 25.372 11.105 25.4827 10.9928C26.1987 11.7746 27.0983 12.3656 28.1001 12.7122C29.102 13.0587 30.1744 13.15 31.2204 12.9777C32.2665 12.8055 33.253 12.375 34.0908 11.7255C34.9285 11.0759 35.5911 10.2276 36.0184 9.25745C36.4458 8.2873 36.6245 7.22589 36.5383 6.16929C36.4521 5.1127 36.1038 4.09427 35.5249 3.20619C34.946 2.31811 34.1548 1.58841 33.2228 1.08315C32.2908 0.577893 31.2476 0.313017 30.1875 0.3125Z"
        fill="#9747FF" />
</svg>