<svg width="60" height="47" viewBox="0 0 60 47" fill="none" xmlns="http://www.w3.org/2000/svg">
    <path
        d="M39.5958 18.5838L31.4875 26.5763C31.002 26.449 30.5024 26.3814 30 26.375C28.4529 26.375 26.9692 26.9808 25.8752 28.0591C24.7813 29.1375 24.1667 30.6 24.1667 32.125C24.1732 32.6202 24.2417 33.1127 24.3708 33.5913L22.0958 35.8338C21.8225 36.101 21.6055 36.419 21.4574 36.7693C21.3093 37.1197 21.2331 37.4955 21.2331 37.875C21.2331 38.2545 21.3093 38.6303 21.4574 38.9807C21.6055 39.331 21.8225 39.649 22.0958 39.9163C22.367 40.1857 22.6896 40.3996 23.045 40.5456C23.4004 40.6915 23.7816 40.7667 24.1667 40.7667C24.5517 40.7667 24.9329 40.6915 25.2884 40.5456C25.6438 40.3996 25.9664 40.1857 26.2375 39.9163L28.5125 37.6738C28.998 37.801 29.4977 37.8686 30 37.875C31.5471 37.875 33.0308 37.2692 34.1248 36.1909C35.2188 35.1125 35.8333 33.65 35.8333 32.125C35.8268 31.6298 35.7583 31.1373 35.6292 30.6588L43.7375 22.6663C44.2867 22.1249 44.5953 21.3906 44.5953 20.625C44.5953 19.8594 44.2867 19.1251 43.7375 18.5838C43.1883 18.0424 42.4434 17.7382 41.6667 17.7382C40.89 17.7382 40.1451 18.0424 39.5958 18.5838ZM30 0.5C26.1698 0.5 22.3771 1.24364 18.8384 2.68846C15.2997 4.13329 12.0844 6.251 9.37606 8.92068C3.90625 14.3124 0.833341 21.625 0.833341 29.25C0.818978 34.9441 2.53587 40.5119 5.76251 45.235C6.1957 45.8679 6.86619 46.3052 7.62649 46.4508C8.3868 46.5964 9.17463 46.4383 9.81668 46.0113C10.4587 45.5843 10.9024 44.9233 11.0501 44.1739C11.1978 43.4244 11.0374 42.6479 10.6042 42.015C8.25485 38.5522 6.90374 34.5254 6.69512 30.3647C6.4865 26.204 7.4282 22.0655 9.41967 18.3912C11.4111 14.7169 14.3776 11.6447 18.0023 9.50274C21.627 7.36073 25.7738 6.22933 30 6.22933C34.2262 6.22933 38.373 7.36073 41.9977 9.50274C45.6224 11.6447 48.5889 14.7169 50.5803 18.3912C52.5718 22.0655 53.5135 26.204 53.3049 30.3647C53.0963 34.5254 51.7452 38.5522 49.3958 42.015C49.1809 42.3282 49.0307 42.6802 48.9539 43.0507C48.8772 43.4212 48.8753 43.803 48.9485 44.1742C49.0216 44.5454 49.1683 44.8987 49.3802 45.214C49.5921 45.5292 49.8651 45.8001 50.1833 46.0113C50.6662 46.3311 51.235 46.5013 51.8167 46.5C52.2944 46.5007 52.7651 46.3857 53.1872 46.1651C53.6093 45.9446 53.97 45.6252 54.2375 45.235C57.4641 40.5119 59.181 34.9441 59.1667 29.25C59.1667 21.625 56.0938 14.3124 50.624 8.92068C45.1541 3.52901 37.7355 0.5 30 0.5Z"
        fill="#9747FF" />
</svg>