<svg width="46" height="48" viewBox="0 0 46 48" fill="none" xmlns="http://www.w3.org/2000/svg">
    <path
        d="M17.8764 34.4022C18.883 34.9113 19.7889 35.5361 20.5941 36.2766C21.3993 37.017 22.0962 37.8501 22.6846 38.7757C23.2731 39.7013 23.7144 40.6886 24.0086 41.7377C24.3029 42.7867 24.4577 43.882 24.4732 45.0236H21.5C21.5 43.8049 21.2677 42.6556 20.8032 41.5757C20.3386 40.4958 19.7037 39.5548 18.8984 38.7526C18.0932 37.9504 17.1408 37.3101 16.0414 36.8319C14.9419 36.3537 13.7882 36.1223 12.5804 36.1377C11.3415 36.1377 10.1878 36.3691 9.11935 36.8319C8.05085 37.2947 7.10624 37.9272 6.28551 38.7294C5.46477 39.5316 4.82213 40.4804 4.35756 41.5757C3.893 42.671 3.66071 43.8203 3.66071 45.0236H0.6875C0.6875 43.8974 0.842355 42.8098 1.15206 41.7608C1.46177 40.7118 1.90311 39.7245 2.47607 38.7988C3.04904 37.8732 3.73814 37.0402 4.54339 36.2997C5.34863 35.5592 6.26228 34.9267 7.28432 34.4022C6.13839 33.5537 5.24798 32.5047 4.61307 31.2551C3.97817 30.0055 3.66071 28.6711 3.66071 27.2518C3.66071 26.0331 3.893 24.8838 4.35756 23.8039C4.82213 22.7241 5.45703 21.783 6.26228 20.9808C7.06752 20.1786 8.01214 19.5384 9.09612 19.0602C10.1801 18.5819 11.3415 18.3505 12.5804 18.366C14.005 18.366 15.3445 18.6822 16.5988 19.3147C17.8532 19.9472 18.9062 20.8343 19.7579 21.9759C20.3463 20.8188 21.0974 19.7852 22.011 18.8751C22.9247 17.9649 23.9622 17.2167 25.1236 16.6304C23.9777 15.782 23.0873 14.7329 22.4524 13.4834C21.8175 12.2338 21.5 10.8994 21.5 9.4801C21.5 8.26138 21.7323 7.11208 22.1968 6.0322C22.6614 4.95232 23.2963 4.01128 24.1016 3.20908C24.9068 2.40688 25.8514 1.76667 26.9354 1.28844C28.0194 0.810205 29.1808 0.578802 30.4196 0.594229C31.643 0.594229 32.7967 0.825632 33.8806 1.28844C34.9646 1.75124 35.9093 2.38374 36.7145 3.18594C37.5197 3.98814 38.1624 4.93689 38.6424 6.0322C39.1225 7.1275 39.3548 8.2768 39.3393 9.4801C39.3393 10.8994 39.0218 12.2338 38.3869 13.4834C37.752 14.7329 36.8616 15.782 35.7157 16.6304C36.7222 17.1395 37.6281 17.7643 38.4334 18.5048C39.2386 19.2453 39.9355 20.0783 40.5239 21.004C41.1124 21.9296 41.5537 22.9169 41.8479 23.9659C42.1422 25.0149 42.297 26.1103 42.3125 27.2518H39.3393C39.3393 26.0331 39.107 24.8838 38.6424 23.8039C38.1779 22.7241 37.543 21.783 36.7377 20.9808C35.9325 20.1786 34.9801 19.5384 33.8806 19.0602C32.7812 18.5819 31.6275 18.3505 30.4196 18.366C29.1808 18.366 28.0271 18.5974 26.9586 19.0602C25.8901 19.523 24.9455 20.1555 24.1248 20.9577C23.3041 21.7599 22.6614 22.7086 22.1968 23.8039C21.7323 24.8992 21.5 26.0485 21.5 27.2518C21.5 28.6711 21.1825 30.0055 20.5476 31.2551C19.9127 32.5047 19.0223 33.5537 17.8764 34.4022ZM24.4732 9.4801C24.4732 10.2977 24.6281 11.0614 24.9378 11.771C25.2475 12.4806 25.6733 13.1131 26.2153 13.6685C26.7573 14.2239 27.3845 14.6481 28.0968 14.9412C28.8092 15.2343 29.5834 15.3886 30.4196 15.404C31.2404 15.404 32.0069 15.2497 32.7192 14.9412C33.4316 14.6327 34.0665 14.2084 34.624 13.6685C35.1814 13.1286 35.6073 12.5038 35.9015 11.7941C36.1957 11.0845 36.3506 10.3131 36.3661 9.4801C36.3661 8.66248 36.2112 7.89885 35.9015 7.18921C35.5918 6.47957 35.1659 5.84707 34.624 5.29171C34.082 4.73634 33.4548 4.3121 32.7425 4.01899C32.0301 3.72588 31.2559 3.57161 30.4196 3.55619C29.5989 3.55619 28.8324 3.71045 28.12 4.01899C27.4077 4.32753 26.7728 4.75177 26.2153 5.29171C25.6579 5.83165 25.232 6.45643 24.9378 7.16607C24.6436 7.87571 24.4887 8.64705 24.4732 9.4801ZM6.63393 27.2518C6.63393 28.0695 6.78878 28.8331 7.09849 29.5427C7.4082 30.2524 7.83405 30.8849 8.37605 31.4402C8.91804 31.9956 9.5452 32.4198 10.2575 32.7129C10.9699 33.0061 11.7441 33.1603 12.5804 33.1758C13.4011 33.1758 14.1676 33.0215 14.88 32.7129C15.5923 32.4044 16.2272 31.9802 16.7847 31.4402C17.3421 30.9003 17.768 30.2755 18.0622 29.5659C18.3564 28.8562 18.5113 28.0849 18.5268 27.2518C18.5268 26.4342 18.3719 25.6706 18.0622 24.9609C17.7525 24.2513 17.3267 23.6188 16.7847 23.0634C16.2427 22.5081 15.6155 22.0838 14.9032 21.7907C14.1908 21.4976 13.4166 21.3434 12.5804 21.3279C11.7596 21.3279 10.9931 21.4822 10.2808 21.7907C9.56843 22.0993 8.93352 22.5235 8.37605 23.0634C7.81857 23.6034 7.39272 24.2282 7.09849 24.9378C6.80427 25.6474 6.64941 26.4188 6.63393 27.2518ZM41.5692 47.9855L34.8795 42.779L28.1897 47.9855L30.8842 39.655L24.4732 34.6567H32.487L34.8795 27.2518L37.272 34.6567H45.2857L38.8747 39.655L41.5692 47.9855Z"
        fill="#9747FF" />
</svg>