<svg width="10" height="13" viewBox="0 0 10 13" fill="none" xmlns="http://www.w3.org/2000/svg">
<path d="M1.09199 12.0417C0.800326 12.0417 0.552409 11.9396 0.348242 11.7354C0.144076 11.5313 0.0419922 11.2833 0.0419922 10.9917V3.17501C0.0419922 2.88334 0.144076 2.63542 0.348242 2.43126C0.552409 2.22709 0.800326 2.12501 1.09199 2.12501H1.90866V0.885422H2.79824V2.12501H7.21699V0.885422H8.09199V2.12501H8.90866C9.20033 2.12501 9.44824 2.22709 9.65241 2.43126C9.85658 2.63542 9.95866 2.88334 9.95866 3.17501V10.9917C9.95866 11.2833 9.85658 11.5313 9.65241 11.7354C9.44824 11.9396 9.20033 12.0417 8.90866 12.0417H1.09199ZM1.09199 11.1667H8.90866C8.94755 11.1667 8.98644 11.1472 9.02533 11.1083C9.06421 11.0694 9.08366 11.0306 9.08366 10.9917V5.50834H0.916992V10.9917C0.916992 11.0306 0.936437 11.0694 0.975326 11.1083C1.01421 11.1472 1.0531 11.1667 1.09199 11.1667ZM0.916992 4.63334H9.08366V3.17501C9.08366 3.13612 9.06421 3.09723 9.02533 3.05834C8.98644 3.01945 8.94755 3.00001 8.90866 3.00001H1.09199C1.0531 3.00001 1.01421 3.01945 0.975326 3.05834C0.936437 3.09723 0.916992 3.13612 0.916992 3.17501V4.63334Z" fill="#B1B3C5"/>
</svg>
