<svg width="50" height="50" viewBox="0 0 50 50" fill="none" xmlns="http://www.w3.org/2000/svg">
<path d="M30.1223 2.1168L34.2356 7.45713C34.5125 7.89899 34.6465 8.41545 34.6193 8.93619C34.5921 9.45693 34.4051 9.95664 34.0838 10.3673L33.2494 11.4334C33.1002 11.6241 33.0154 11.8572 33.0072 12.0992C32.9991 12.3412 33.068 12.5796 33.204 12.7799L41.6555 23.0516C42.0851 23.6841 41.7844 24.552 41.0555 24.7831L38.8298 25.4888C37.9921 25.7544 37.7551 26.8268 38.4029 27.4206L39.3273 28.2681C39.8069 28.7077 39.8232 29.4585 39.3632 29.9187C39.0493 30.2325 38.7603 31.1472 38.9119 31.5644L40.3598 33.8343C40.3937 33.8875 40.4227 33.944 40.4403 34.0046C40.6613 34.764 40.4193 36.064 39.9331 36.6464L38.6383 38.1975C38.5337 38.3228 38.4571 38.4691 38.4138 38.6264C38.3704 38.7838 38.3613 38.9487 38.387 39.1099L39.1048 43.3262C39.5422 46.0656 38.3412 50 24.9999 50C11.6586 50 8.14627 46.4199 8.14627 42.8276V30.8197C8.14627 29.8461 8.32928 28.8812 8.68572 27.9751L9.62889 25.5779C9.72683 25.3291 9.78935 25.0677 9.81463 24.8015L11.9232 4.7792C12.2466 1.37598 15.1047 0 18.5232 0H26.2977C27.0623 3.84727e-06 27.8144 0.194247 28.4834 0.564505C29.1524 0.934763 29.7163 1.4689 30.1223 2.1168Z" fill="#625BF7"/>
<path d="M29.5477 8.12782C28.6676 7.99989 27.242 7.87861 24.9999 7.87861C22.5854 7.87861 20.8671 8.86406 19.7617 9.83183C18.8873 10.5974 19.1729 12.0236 20.2722 12.4008C22.0059 12.9955 24.4362 13.8144 25.9761 14.2706C26.7342 14.4952 27.5412 14.1052 27.8263 13.3677C28.4221 11.8268 29.4386 10.0285 30.0183 9.19433C30.3088 8.77636 30.0513 8.20107 29.5477 8.12782ZM34.1386 7.53798C34.1505 7.52824 34.1644 7.52125 34.1792 7.51753C34.1941 7.5138 34.2096 7.51344 34.2247 7.51646C34.2397 7.51948 34.2539 7.52581 34.2661 7.53499C34.2784 7.54416 34.2885 7.55596 34.2957 7.56952L34.8089 8.52968C34.8938 8.68854 34.9337 8.86757 34.9244 9.04746C34.915 9.22735 34.8567 9.40127 34.7558 9.55048L33.204 12.7799L31.5864 9.80605C31.2061 9.10702 31.6056 8.23905 32.3841 8.07353C33.1318 7.91454 33.915 7.72265 34.1386 7.53798ZM41.0992 24.8392L38.3712 25.9447C38.2955 25.9754 38.2291 26.0253 38.1787 26.0896C38.1283 26.1538 38.0956 26.2301 38.0838 26.3109L38.1705 26.9394C38.1836 27.0341 38.079 27.1 37.9992 27.0474L34.877 24.9873C34.6831 24.849 34.7759 24.5435 35.0139 24.5365L41.2548 24.4781C41.5318 24.47 41.356 24.7351 41.0992 24.8392ZM39.0785 30.4859C38.877 30.8951 38.8912 31.3357 39.1189 31.7392L39.6931 32.7566L33.4544 30.5267C32.7603 30.4013 32.7702 29.7659 33.4679 29.6491C35.6318 29.2868 38.7695 29.9162 39.5629 29.6491L39.0785 30.4859ZM39.0439 37.7117L38.4958 39.4013C38.4664 39.4709 38.4571 39.5475 38.469 39.6221L38.7204 41.198C38.7791 41.566 38.3509 41.8105 38.0637 41.5729L33.4472 37.2562C33.1242 36.989 33.0996 36.7393 33.511 36.8202C35.1045 37.1339 37.6407 37.6144 38.8318 37.5652C39.1256 37.5531 39.1583 37.4408 39.0439 37.7117ZM17.3501 21.687C16.9043 22.4521 15.9477 23.602 14.2245 23.602C12.4787 23.602 11.5197 22.4218 11.0816 21.657C11.0067 21.5263 11.1604 21.389 11.2824 21.4773C12.8614 22.6221 15.718 22.522 17.1516 21.5058C17.273 21.4197 17.425 21.5585 17.3501 21.687Z" fill="#444B4F"/>
</svg>
